<?xml version="1.0" encoding="UTF-8"?>
<!DOCTYPE svg PUBLIC "-//W3C//DTD SVG 1.1//EN" "http://www.w3.org/Graphics/SVG/1.1/DTD/svg11.dtd">
<svg xmlns="http://www.w3.org/2000/svg" version="1.1" width="784px" height="668px" style="shape-rendering:geometricPrecision; text-rendering:geometricPrecision; image-rendering:optimizeQuality; fill-rule:evenodd; clip-rule:evenodd" xmlns:xlink="http://www.w3.org/1999/xlink">
<g><path style="opacity:1" fill="#00cd91" d="M 420.5,89.5 C 417.9,93.701 415.566,98.0344 413.5,102.5C 412.263,103.965 411.263,105.632 410.5,107.5C 407.39,114.239 403.557,120.572 399,126.5C 397.589,128.65 396.755,130.984 396.5,133.5C 390.708,141.723 385.375,150.39 380.5,159.5C 378.659,161.849 377.326,164.515 376.5,167.5C 365.148,185.689 354.148,204.189 343.5,223C 351.004,227.587 358.671,231.92 366.5,236C 367.381,236.708 368.047,237.542 368.5,238.5C 368.557,239.609 368.89,240.609 369.5,241.5C 369.377,244.374 368.377,246.874 366.5,249C 359.833,252.333 353.167,255.667 346.5,259C 347.056,259.383 347.389,259.883 347.5,260.5C 311.101,277.455 275.101,294.955 239.5,313C 228.153,317.576 222.32,313.743 222,301.5C 218.665,254.158 215.665,206.824 213,159.5C 214.668,155.305 217.834,152.971 222.5,152.5C 231.034,156.175 239.201,160.509 247,165.5C 257.667,147.5 268.333,129.5 279,111.5C 287.658,101.843 298.158,95.0096 310.5,91C 347.118,89.5255 383.785,89.0255 420.5,89.5 Z"/></g>
<g><path style="opacity:1" fill="#e2f903" d="M 502.5,102.5 C 500.901,102.232 499.568,102.566 498.5,103.5C 496.651,107.494 497.985,108.994 502.5,108C 503.252,107.329 503.586,106.496 503.5,105.5C 503.833,105.5 504.167,105.5 504.5,105.5C 508.42,107.749 511.754,110.749 514.5,114.5C 509.987,112.333 508.154,113.666 509,118.5C 509.725,119.059 510.558,119.392 511.5,119.5C 512.867,118.775 514.2,118.108 515.5,117.5C 523.451,129.461 530.951,141.794 538,154.5C 538.64,157.368 537.473,159.035 534.5,159.5C 533.817,157.824 532.483,157.157 530.5,157.5C 530.719,158.675 530.386,159.675 529.5,160.5C 527.739,161.035 526.406,162.035 525.5,163.5C 524.508,163.328 523.842,163.662 523.5,164.5C 515.703,168.232 508.036,172.232 500.5,176.5C 497.886,177.807 495.22,179.14 492.5,180.5C 488.883,177.742 486.883,178.742 486.5,183.5C 480.194,186.988 473.86,190.488 467.5,194C 466.748,194.671 466.414,195.504 466.5,196.5C 461.189,199.464 455.855,202.464 450.5,205.5C 450.5,204.167 449.833,203.5 448.5,203.5C 448.209,202.351 447.376,201.684 446,201.5C 442.803,201.663 441.969,202.996 443.5,205.5C 443.114,208.262 441.781,209.262 439.5,208.5C 437.754,204.673 435.754,201.007 433.5,197.5C 434.602,196.824 435.602,196.158 436.5,195.5C 437.451,194.081 437.784,192.415 437.5,190.5C 435.219,190.077 433.552,190.744 432.5,192.5C 431.883,192.611 431.383,192.944 431,193.5C 429.473,190.447 427.973,187.447 426.5,184.5C 428.023,182.414 427.69,180.748 425.5,179.5C 424.469,178.751 423.302,178.085 422,177.5C 420.058,173.931 417.892,170.598 415.5,167.5C 413.336,162.5 410.669,157.833 407.5,153.5C 407.34,151.847 406.674,150.514 405.5,149.5C 405.5,148.833 405.167,148.5 404.5,148.5C 403.559,146.534 402.559,144.534 401.5,142.5C 404.25,141.284 405.417,139.284 405,136.5C 402.733,135.065 400.733,135.398 399,137.5C 397.905,136.307 397.072,134.973 396.5,133.5C 396.755,130.984 397.589,128.65 399,126.5C 403.557,120.572 407.39,114.239 410.5,107.5C 413.235,109.135 415.235,108.469 416.5,105.5C 415.812,104.145 414.812,103.145 413.5,102.5C 415.566,98.0344 417.9,93.701 420.5,89.5C 439.35,88.2112 458.35,88.3779 477.5,90C 486.578,92.9522 494.911,97.1189 502.5,102.5 Z"/></g>
<g><path style="opacity:1" fill="#237556" d="M 422.5,91.5 C 426.35,91.7007 427.35,93.5341 425.5,97C 421.537,97.1177 420.537,95.2843 422.5,91.5 Z"/></g>
<g><path style="opacity:1" fill="#277955" d="M 444.5,91.5 C 448.35,91.7007 449.35,93.5341 447.5,97C 442.676,97.1833 441.676,95.3499 444.5,91.5 Z"/></g>
<g><path style="opacity:1" fill="#277a55" d="M 466.5,91.5 C 470.35,91.7007 471.35,93.5341 469.5,97C 464.289,97.5464 463.289,95.713 466.5,91.5 Z"/></g>
<g><path style="opacity:1" fill="#2b7c54" d="M 476.5,102.5 C 481.159,102.015 482.492,103.848 480.5,108C 475.728,108.81 474.395,106.977 476.5,102.5 Z"/></g>
<g><path style="opacity:0.212" fill="#79bd3d" d="M 498.5,103.5 C 499.568,102.566 500.901,102.232 502.5,102.5C 503.906,102.973 504.573,103.973 504.5,105.5C 504.167,105.5 503.833,105.5 503.5,105.5C 502.18,104.058 500.514,103.392 498.5,103.5 Z"/></g>
<g><path style="opacity:1" fill="#2b7953" d="M 413.5,102.5 C 414.812,103.145 415.812,104.145 416.5,105.5C 415.235,108.469 413.235,109.135 410.5,107.5C 411.263,105.632 412.263,103.965 413.5,102.5 Z"/></g>
<g><path style="opacity:1" fill="#2c7c54" d="M 455.5,102.5 C 459.35,102.701 460.35,104.534 458.5,108C 453.289,108.546 452.289,106.713 455.5,102.5 Z"/></g>
<g><path style="opacity:1" fill="#297c55" d="M 498.5,103.5 C 500.514,103.392 502.18,104.058 503.5,105.5C 503.586,106.496 503.252,107.329 502.5,108C 497.985,108.994 496.651,107.494 498.5,103.5 Z"/></g>
<g><path style="opacity:1" fill="#207556" d="M 433.5,102.5 C 437.068,102.759 438.401,104.759 437.5,108.5C 432.74,108.799 431.406,106.799 433.5,102.5 Z"/></g>
<g><path style="opacity:1" fill="#257856" d="M 422.5,113.5 C 426.068,113.759 427.401,115.759 426.5,119.5C 421.74,119.799 420.406,117.799 422.5,113.5 Z"/></g>
<g><path style="opacity:1" fill="#267756" d="M 444.5,113.5 C 448.35,113.701 449.35,115.534 447.5,119C 442.722,119.073 441.722,117.24 444.5,113.5 Z"/></g>
<g><path style="opacity:1" fill="#297b54" d="M 466.5,113.5 C 470.35,113.701 471.35,115.534 469.5,119C 466.763,120.08 465.096,119.246 464.5,116.5C 464.942,115.261 465.609,114.261 466.5,113.5 Z"/></g>
<g><path style="opacity:1" fill="#277c54" d="M 487.5,113.5 C 492.159,113.015 493.492,114.848 491.5,119C 486.728,119.81 485.395,117.977 487.5,113.5 Z"/></g>
<g><path style="opacity:1" fill="#2e7f54" d="M 514.5,114.5 C 515.11,115.391 515.443,116.391 515.5,117.5C 514.2,118.108 512.867,118.775 511.5,119.5C 510.558,119.392 509.725,119.059 509,118.5C 508.154,113.666 509.987,112.333 514.5,114.5 Z"/></g>
<g><path style="opacity:1" fill="#277955" d="M 411.5,124.5 C 415.225,124.537 416.558,126.204 415.5,129.5C 410.733,130.899 409.4,129.232 411.5,124.5 Z"/></g>
<g><path style="opacity:1" fill="#217257" d="M 433.5,124.5 C 437.35,124.701 438.35,126.534 436.5,130C 432.537,130.118 431.537,128.284 433.5,124.5 Z"/></g>
<g><path style="opacity:1" fill="#267855" d="M 455.5,124.5 C 459.35,124.701 460.35,126.534 458.5,130C 453.722,130.073 452.722,128.24 455.5,124.5 Z"/></g>
<g><path style="opacity:1" fill="#297d54" d="M 498.5,124.5 C 503.159,124.015 504.492,125.848 502.5,130C 497.728,130.81 496.395,128.977 498.5,124.5 Z"/></g>
<g><path style="opacity:1" fill="#287c55" d="M 476.5,124.5 C 481.159,124.015 482.492,125.848 480.5,130C 475.728,130.81 474.395,128.977 476.5,124.5 Z"/></g>
<g><path style="opacity:1" fill="#215b35" d="M 396.5,133.5 C 397.072,134.973 397.905,136.307 399,137.5C 400.733,135.398 402.733,135.065 405,136.5C 405.417,139.284 404.25,141.284 401.5,142.5C 402.559,144.534 403.559,146.534 404.5,148.5C 404.167,148.5 403.833,148.5 403.5,148.5C 402.686,146.727 401.352,146.227 399.5,147C 399.027,149.86 397.694,152.193 395.5,154C 391.889,155.853 388.056,157.02 384,157.5C 382.779,158.272 381.779,159.272 381,160.5C 380.601,160.272 380.435,159.938 380.5,159.5C 385.375,150.39 390.708,141.723 396.5,133.5 Z"/></g>
<g><path style="opacity:1" fill="#257656" d="M 422.5,135.5 C 423.833,135.5 425.167,135.5 426.5,135.5C 426.66,137.199 426.494,138.866 426,140.5C 421.633,141.575 420.466,139.908 422.5,135.5 Z"/></g>
<g><path style="opacity:1" fill="#267856" d="M 444.5,135.5 C 448.35,135.701 449.35,137.534 447.5,141C 442.722,141.073 441.722,139.24 444.5,135.5 Z"/></g>
<g><path style="opacity:1" fill="#297b55" d="M 487.5,135.5 C 491.909,134.899 493.242,136.566 491.5,140.5C 490.167,141.833 488.833,141.833 487.5,140.5C 486.334,138.833 486.334,137.166 487.5,135.5 Z"/></g>
<g><path style="opacity:1" fill="#297a55" d="M 509.5,135.5 C 514.587,135.284 515.587,137.118 512.5,141C 508.537,141.118 507.537,139.284 509.5,135.5 Z"/></g>
<g><path style="opacity:1" fill="#297b54" d="M 465.5,135.5 C 470.159,135.015 471.492,136.848 469.5,141C 465.126,141.424 463.792,139.591 465.5,135.5 Z"/></g>
<g><path style="opacity:1" fill="#287a55" d="M 411.5,146.5 C 416.158,146.653 417.158,148.486 414.5,152C 410.537,152.118 409.537,150.284 411.5,146.5 Z"/></g>
<g><path style="opacity:1" fill="#247656" d="M 433.5,146.5 C 437.35,146.701 438.35,148.534 436.5,152C 432.537,152.118 431.537,150.284 433.5,146.5 Z"/></g>
<g><path style="opacity:1" fill="#267856" d="M 455.5,146.5 C 459.35,146.701 460.35,148.534 458.5,152C 453.722,152.073 452.722,150.24 455.5,146.5 Z"/></g>
<g><path style="opacity:1" fill="#297c55" d="M 476.5,146.5 C 480.909,145.899 482.242,147.566 480.5,151.5C 479.167,152.833 477.833,152.833 476.5,151.5C 475.334,149.833 475.334,148.166 476.5,146.5 Z"/></g>
<g><path style="opacity:1" fill="#2d7d54" d="M 498.5,146.5 C 502.903,145.893 504.236,147.56 502.5,151.5C 497.733,152.899 496.4,151.232 498.5,146.5 Z"/></g>
<g><path style="opacity:1" fill="#287a55" d="M 520.5,146.5 C 525.158,146.653 526.158,148.486 523.5,152C 519.537,152.118 518.537,150.284 520.5,146.5 Z"/></g>
<g><path style="opacity:1" fill="#2a7b54" d="M 465.5,157.5 C 470.159,157.015 471.492,158.848 469.5,163C 465.266,163.267 463.933,161.434 465.5,157.5 Z"/></g>
<g><path style="opacity:1" fill="#2b7e54" d="M 487.5,157.5 C 492.159,157.015 493.492,158.848 491.5,163C 487.132,163.439 485.799,161.606 487.5,157.5 Z"/></g>
<g><path style="opacity:1" fill="#277a55" d="M 509.5,157.5 C 514.587,157.284 515.587,159.118 512.5,163C 508.537,163.118 507.537,161.284 509.5,157.5 Z"/></g>
<g><path style="opacity:1" fill="#217556" d="M 421.5,157.5 C 423.167,157.5 424.833,157.5 426.5,157.5C 426.66,159.199 426.494,160.866 426,162.5C 424.667,163.833 423.333,163.833 422,162.5C 421.506,160.866 421.34,159.199 421.5,157.5 Z"/></g>
<g><path style="opacity:1" fill="#287b55" d="M 443.5,157.5 C 445.167,157.5 446.833,157.5 448.5,157.5C 448.829,163.936 446.829,164.936 442.5,160.5C 443.127,159.583 443.461,158.583 443.5,157.5 Z"/></g>
<g><path style="opacity:1" fill="#287955" d="M 498.5,168.5 C 503.587,168.284 504.587,170.118 501.5,174C 497.83,173.836 496.83,172.003 498.5,168.5 Z"/></g>
<g><path style="opacity:1" fill="#277955" d="M 476.5,168.5 C 481.159,168.015 482.492,169.848 480.5,174C 476.266,174.267 474.933,172.434 476.5,168.5 Z"/></g>
<g><path style="opacity:0.251" fill="#79c320" d="M 407.5,153.5 C 410.669,157.833 413.336,162.5 415.5,167.5C 414.292,166.766 412.959,166.433 411.5,166.5C 411.343,167.873 411.51,169.207 412,170.5C 412.333,170.167 412.667,169.833 413,169.5C 414.001,172.835 415.501,175.835 417.5,178.5C 418.031,180.544 419.198,182.211 421,183.5C 421.658,186.285 422.491,188.951 423.5,191.5C 421.436,191.313 419.436,190.813 417.5,190C 414.698,186.941 412.698,183.441 411.5,179.5C 408.857,178.024 406.69,176.024 405,173.5C 404.5,166.842 404.334,160.175 404.5,153.5C 405.5,153.5 406.5,153.5 407.5,153.5 Z"/></g>
<g><path style="opacity:0.157" fill="#a9dd13" d="M 415.5,167.5 C 417.892,170.598 420.058,173.931 422,177.5C 423.302,178.085 424.469,178.751 425.5,179.5C 423.833,179.5 422.167,179.5 420.5,179.5C 419.791,178.596 418.791,178.263 417.5,178.5C 415.501,175.835 414.001,172.835 413,169.5C 412.667,169.833 412.333,170.167 412,170.5C 411.51,169.207 411.343,167.873 411.5,166.5C 412.959,166.433 414.292,166.766 415.5,167.5 Z"/></g>
<g><path style="opacity:1" fill="#247656" d="M 432.5,168.5 C 434.167,168.5 435.833,168.5 437.5,168.5C 437.66,170.199 437.494,171.866 437,173.5C 435.667,174.833 434.333,174.833 433,173.5C 432.506,171.866 432.34,170.199 432.5,168.5 Z"/></g>
<g><path style="opacity:1" fill="#277955" d="M 454.5,168.5 C 459.159,168.015 460.492,169.848 458.5,174C 454.266,174.267 452.933,172.434 454.5,168.5 Z"/></g>
<g><path style="opacity:0.587" fill="#358129" d="M 523.5,164.5 C 521.945,167.94 520.112,171.273 518,174.5C 517.818,177.226 517.318,179.893 516.5,182.5C 514.929,181.691 513.262,181.357 511.5,181.5C 511.5,180.5 511.5,179.5 511.5,178.5C 509.723,178.214 508.056,177.547 506.5,176.5C 504.726,176.887 503.059,177.553 501.5,178.5C 500.702,178.043 500.369,177.376 500.5,176.5C 508.036,172.232 515.703,168.232 523.5,164.5 Z"/></g>
<g><path style="opacity:1" fill="#2d7d54" d="M 466.5,178.5 C 470.252,179.306 471.252,181.472 469.5,185C 464.382,184.824 463.382,182.658 466.5,178.5 Z"/></g>
<g><path style="opacity:0.353" fill="#61af41" d="M 420.5,179.5 C 422.167,179.5 423.833,179.5 425.5,179.5C 427.69,180.748 428.023,182.414 426.5,184.5C 425.167,184.5 423.833,184.5 422.5,184.5C 422.107,182.716 421.441,181.05 420.5,179.5 Z"/></g>
<g><path style="opacity:1" fill="#2d8154" d="M 444.5,178.5 C 448.473,179.075 449.473,181.242 447.5,185C 442.382,184.824 441.382,182.658 444.5,178.5 Z"/></g>
<g><path style="opacity:0.298" fill="#64ad26" d="M 534.5,159.5 C 532.221,161.959 530.054,164.626 528,167.5C 527.467,175.116 525.8,182.449 523,189.5C 521.117,192.024 518.617,193.358 515.5,193.5C 515.804,192.85 516.137,192.183 516.5,191.5C 511.151,190.498 505.818,189.498 500.5,188.5C 500.631,187.624 500.298,186.957 499.5,186.5C 497.009,184.942 494.343,183.942 491.5,183.5C 495.124,180.5 499.457,179.167 504.5,179.5C 504.5,181.5 504.5,183.5 504.5,185.5C 508.884,185.826 513.217,185.492 517.5,184.5C 519.518,177.781 522.518,171.448 526.5,165.5C 526.137,164.817 525.804,164.15 525.5,163.5C 526.406,162.035 527.739,161.035 529.5,160.5C 530.386,159.675 530.719,158.675 530.5,157.5C 532.483,157.157 533.817,157.824 534.5,159.5 Z"/></g>
<g><path style="opacity:0.505" fill="#47962b" d="M 525.5,163.5 C 525.804,164.15 526.137,164.817 526.5,165.5C 522.518,171.448 519.518,177.781 517.5,184.5C 513.217,185.492 508.884,185.826 504.5,185.5C 504.5,183.5 504.5,181.5 504.5,179.5C 499.457,179.167 495.124,180.5 491.5,183.5C 489.833,183.5 488.167,183.5 486.5,183.5C 486.883,178.742 488.883,177.742 492.5,180.5C 495.22,179.14 497.886,177.807 500.5,176.5C 500.369,177.376 500.702,178.043 501.5,178.5C 503.059,177.553 504.726,176.887 506.5,176.5C 508.056,177.547 509.723,178.214 511.5,178.5C 511.5,179.5 511.5,180.5 511.5,181.5C 513.262,181.357 514.929,181.691 516.5,182.5C 517.318,179.893 517.818,177.226 518,174.5C 520.112,171.273 521.945,167.94 523.5,164.5C 523.842,163.662 524.508,163.328 525.5,163.5 Z"/></g>
<g><path style="opacity:0.999" fill="#205731" d="M 376.5,167.5 C 375.045,173.809 373.045,179.975 370.5,186C 371.289,187.626 372.289,189.126 373.5,190.5C 377.695,190.941 381.528,192.274 385,194.5C 385.333,200.5 385.667,206.5 386,212.5C 387.852,214.23 387.686,215.396 385.5,216C 386.728,219.421 388.061,222.754 389.5,226C 384.279,229.569 379.279,233.402 374.5,237.5C 372.604,238.466 370.604,238.799 368.5,238.5C 368.047,237.542 367.381,236.708 366.5,236C 358.671,231.92 351.004,227.587 343.5,223C 354.148,204.189 365.148,185.689 376.5,167.5 Z"/></g>
<g><path style="opacity:0.148" fill="#9ed41b" d="M 486.5,183.5 C 488.167,183.5 489.833,183.5 491.5,183.5C 494.343,183.942 497.009,184.942 499.5,186.5C 500.298,186.957 500.631,187.624 500.5,188.5C 500.511,190.017 501.177,191.184 502.5,192C 501.142,192.934 499.808,193.768 498.5,194.5C 494.541,193.894 490.541,193.227 486.5,192.5C 487.848,189.987 489.848,188.153 492.5,187C 483.27,188.467 474.603,191.634 466.5,196.5C 466.414,195.504 466.748,194.671 467.5,194C 473.86,190.488 480.194,186.988 486.5,183.5 Z"/></g>
<g><path style="opacity:1" fill="#2b7d55" d="M 454.5,190.5 C 459.159,190.015 460.492,191.848 458.5,196C 454.266,196.267 452.933,194.434 454.5,190.5 Z"/></g>
<g><path style="opacity:1" fill="#1b7257" d="M 436.5,195.5 C 435.167,195.5 433.833,195.5 432.5,195.5C 432.5,194.5 432.5,193.5 432.5,192.5C 433.552,190.744 435.219,190.077 437.5,190.5C 437.784,192.415 437.451,194.081 436.5,195.5 Z"/></g>
<g><path style="opacity:0.147" fill="#79c931" d="M 500.5,188.5 C 505.818,189.498 511.151,190.498 516.5,191.5C 516.137,192.183 515.804,192.85 515.5,193.5C 514.167,193.5 512.833,193.5 511.5,193.5C 513.756,198.095 512.423,200.761 507.5,201.5C 505.423,201.308 503.423,200.808 501.5,200C 500.771,197.942 499.771,196.109 498.5,194.5C 499.808,193.768 501.142,192.934 502.5,192C 501.177,191.184 500.511,190.017 500.5,188.5 Z"/></g>
<g><path style="opacity:0.463" fill="#378837" d="M 400.5,157.5 C 400.5,163.167 400.5,168.833 400.5,174.5C 395.578,174.11 395.244,175.277 399.5,178C 400.448,178.483 401.448,178.649 402.5,178.5C 403.201,180.908 404.201,183.242 405.5,185.5C 409.5,188.167 412.833,191.5 415.5,195.5C 409.767,198.507 407.267,203.174 408,209.5C 409.011,210.337 410.178,210.67 411.5,210.5C 411.227,212.451 411.893,213.951 413.5,215C 412.663,216.011 412.33,217.178 412.5,218.5C 410.435,218.517 408.435,218.85 406.5,219.5C 405.508,219.672 404.842,219.338 404.5,218.5C 403.739,217.609 402.739,216.942 401.5,216.5C 399.736,212.031 399.236,207.365 400,202.5C 398.853,203.458 397.853,203.125 397,201.5C 394.166,198.192 393.333,194.525 394.5,190.5C 393.448,190.649 392.448,190.483 391.5,190C 391.665,188.883 391.998,187.716 392.5,186.5C 391.747,183.399 390.081,182.732 387.5,184.5C 382.819,183.822 380.819,181.155 381.5,176.5C 382.873,176.657 384.207,176.49 385.5,176C 388.07,174.143 390.07,171.809 391.5,169C 393.441,167.097 395.774,166.264 398.5,166.5C 397.945,162.988 398.612,159.988 400.5,157.5 Z"/></g>
<g><path style="opacity:0.512" fill="#489730" d="M 405.5,149.5 C 406.674,150.514 407.34,151.847 407.5,153.5C 406.5,153.5 405.5,153.5 404.5,153.5C 404.334,160.175 404.5,166.842 405,173.5C 406.69,176.024 408.857,178.024 411.5,179.5C 412.698,183.441 414.698,186.941 417.5,190C 419.436,190.813 421.436,191.313 423.5,191.5C 424.338,191.842 424.672,192.508 424.5,193.5C 423.013,195.605 421.013,197.272 418.5,198.5C 417.511,202.107 417.177,205.774 417.5,209.5C 420.462,209.117 421.462,210.117 420.5,212.5C 421.193,213.518 421.859,214.518 422.5,215.5C 418.752,215.307 415.418,216.307 412.5,218.5C 412.33,217.178 412.663,216.011 413.5,215C 411.893,213.951 411.227,212.451 411.5,210.5C 410.178,210.67 409.011,210.337 408,209.5C 407.267,203.174 409.767,198.507 415.5,195.5C 412.833,191.5 409.5,188.167 405.5,185.5C 404.201,183.242 403.201,180.908 402.5,178.5C 401.448,178.649 400.448,178.483 399.5,178C 395.244,175.277 395.578,174.11 400.5,174.5C 400.5,168.833 400.5,163.167 400.5,157.5C 401.68,154.968 402.68,152.301 403.5,149.5C 404.429,150.55 405.095,150.55 405.5,149.5 Z"/></g>
<g><path style="opacity:0.535" fill="#276e39" d="M 403.5,148.5 C 402.5,148.5 401.5,148.5 400.5,148.5C 400.074,153.767 397.241,157.101 392,158.5C 389.437,157.185 386.937,157.351 384.5,159C 382.607,161.303 380.607,163.47 378.5,165.5C 377.03,167.482 377.364,169.148 379.5,170.5C 376.805,173.057 375.138,176.223 374.5,180C 375.448,180.483 376.448,180.649 377.5,180.5C 378.449,182.737 379.116,185.071 379.5,187.5C 388.215,186.543 392.549,190.543 392.5,199.5C 393.519,200.687 394.686,201.687 396,202.5C 396.333,206.167 396.667,209.833 397,213.5C 397.5,214 398,214.5 398.5,215C 397.257,216.154 396.257,217.488 395.5,219C 397.554,219.015 399.554,219.848 401.5,221.5C 403.271,220.965 403.604,220.131 402.5,219C 403.094,218.536 403.761,218.369 404.5,218.5C 404.842,219.338 405.508,219.672 406.5,219.5C 406.489,221.017 405.823,222.184 404.5,223C 398.609,225.618 395.276,230.118 394.5,236.5C 393.778,236.082 393.278,235.416 393,234.5C 392.492,236.904 391.325,237.571 389.5,236.5C 383.245,239.709 376.578,241.375 369.5,241.5C 368.89,240.609 368.557,239.609 368.5,238.5C 370.604,238.799 372.604,238.466 374.5,237.5C 379.279,233.402 384.279,229.569 389.5,226C 388.061,222.754 386.728,219.421 385.5,216C 387.686,215.396 387.852,214.23 386,212.5C 385.667,206.5 385.333,200.5 385,194.5C 381.528,192.274 377.695,190.941 373.5,190.5C 372.289,189.126 371.289,187.626 370.5,186C 373.045,179.975 375.045,173.809 376.5,167.5C 377.326,164.515 378.659,161.849 380.5,159.5C 380.435,159.938 380.601,160.272 381,160.5C 381.779,159.272 382.779,158.272 384,157.5C 388.056,157.02 391.889,155.853 395.5,154C 397.694,152.193 399.027,149.86 399.5,147C 401.352,146.227 402.686,146.727 403.5,148.5 Z"/></g>
<g><path style="opacity:0.995" fill="#2e8155" d="M 448.5,203.5 C 447.18,204.942 445.514,205.608 443.5,205.5C 441.969,202.996 442.803,201.663 446,201.5C 447.376,201.684 448.209,202.351 448.5,203.5 Z"/></g>
<g><path style="opacity:0.133" fill="#9dd320" d="M 422.5,184.5 C 423.833,184.5 425.167,184.5 426.5,184.5C 427.973,187.447 429.473,190.447 431,193.5C 431.383,192.944 431.883,192.611 432.5,192.5C 432.5,193.5 432.5,194.5 432.5,195.5C 433.833,195.5 435.167,195.5 436.5,195.5C 435.602,196.158 434.602,196.824 433.5,197.5C 435.754,201.007 437.754,204.673 439.5,208.5C 441.781,209.262 443.114,208.262 443.5,205.5C 445.514,205.608 447.18,204.942 448.5,203.5C 449.833,203.5 450.5,204.167 450.5,205.5C 447.194,207.489 443.861,209.489 440.5,211.5C 438.118,209.741 435.952,207.741 434,205.5C 431.195,197.903 427.362,190.903 422.5,184.5 Z"/></g>
<g><path style="opacity:1" fill="#00cd91" d="M 601.5,485.5 C 599.938,485.267 598.605,484.6 597.5,483.5C 597.443,482.391 597.11,481.391 596.5,480.5C 589.494,468.646 582.661,456.646 576,444.5C 574.989,443.663 573.822,443.33 572.5,443.5C 572.657,442.127 572.49,440.793 572,439.5C 555.301,411.63 538.801,383.63 522.5,355.5C 515.468,359.348 508.468,363.181 501.5,367C 495.687,368.504 491.52,366.671 489,361.5C 488.939,349.836 489.272,338.169 490,326.5C 492.546,288.493 495.212,250.493 498,212.5C 502.59,205.027 508.757,203.527 516.5,208C 557.459,229.43 598.793,250.097 640.5,270C 647.342,276.313 647.009,282.313 639.5,288C 632.677,290.649 626.677,294.482 621.5,299.5C 631.303,317.098 641.136,334.764 651,352.5C 657.578,371.879 655.912,390.545 646,408.5C 631.608,434.644 616.774,460.31 601.5,485.5 Z"/></g>
<g><path style="opacity:0.171" fill="#67ac2e" d="M 424.5,193.5 C 428.49,200.06 429.324,207.06 427,214.5C 425.644,215.38 424.144,215.714 422.5,215.5C 421.859,214.518 421.193,213.518 420.5,212.5C 421.462,210.117 420.462,209.117 417.5,209.5C 417.177,205.774 417.511,202.107 418.5,198.5C 421.013,197.272 423.013,195.605 424.5,193.5 Z"/></g>
<g><path style="opacity:0.335" fill="#2c7d3e" d="M 403.5,148.5 C 403.833,148.5 404.167,148.5 404.5,148.5C 405.167,148.5 405.5,148.833 405.5,149.5C 405.095,150.55 404.429,150.55 403.5,149.5C 402.68,152.301 401.68,154.968 400.5,157.5C 398.612,159.988 397.945,162.988 398.5,166.5C 395.774,166.264 393.441,167.097 391.5,169C 390.07,171.809 388.07,174.143 385.5,176C 384.207,176.49 382.873,176.657 381.5,176.5C 380.819,181.155 382.819,183.822 387.5,184.5C 390.081,182.732 391.747,183.399 392.5,186.5C 391.998,187.716 391.665,188.883 391.5,190C 392.448,190.483 393.448,190.649 394.5,190.5C 393.333,194.525 394.166,198.192 397,201.5C 397.853,203.125 398.853,203.458 400,202.5C 399.236,207.365 399.736,212.031 401.5,216.5C 402.739,216.942 403.739,217.609 404.5,218.5C 403.761,218.369 403.094,218.536 402.5,219C 403.604,220.131 403.271,220.965 401.5,221.5C 399.554,219.848 397.554,219.015 395.5,219C 396.257,217.488 397.257,216.154 398.5,215C 398,214.5 397.5,214 397,213.5C 396.667,209.833 396.333,206.167 396,202.5C 394.686,201.687 393.519,200.687 392.5,199.5C 392.549,190.543 388.215,186.543 379.5,187.5C 379.116,185.071 378.449,182.737 377.5,180.5C 376.448,180.649 375.448,180.483 374.5,180C 375.138,176.223 376.805,173.057 379.5,170.5C 377.364,169.148 377.03,167.482 378.5,165.5C 380.607,163.47 382.607,161.303 384.5,159C 386.937,157.351 389.437,157.185 392,158.5C 397.241,157.101 400.074,153.767 400.5,148.5C 401.5,148.5 402.5,148.5 403.5,148.5 Z"/></g>
<g><path style="opacity:0.078" fill="#1aac6c" d="M 394.5,236.5 C 394.893,239.93 394.227,243.096 392.5,246C 390.074,244.967 387.574,243.8 385,242.5C 382.473,242.67 381.973,243.67 383.5,245.5C 380.548,251.662 376.881,251.995 372.5,246.5C 365.132,252.863 356.799,257.53 347.5,260.5C 347.389,259.883 347.056,259.383 346.5,259C 353.167,255.667 359.833,252.333 366.5,249C 368.377,246.874 369.377,244.374 369.5,241.5C 376.578,241.375 383.245,239.709 389.5,236.5C 391.325,237.571 392.492,236.904 393,234.5C 393.278,235.416 393.778,236.082 394.5,236.5 Z"/></g>
<g><path style="opacity:0.078" fill="#5cc94b" d="M 410.5,251.5 C 408.227,252.735 406.394,252.402 405,250.5C 402.554,250.797 400.054,250.797 397.5,250.5C 397.818,247.695 398.985,245.361 401,243.5C 404.2,244.207 407.367,245.04 410.5,246C 411.536,247.776 411.536,249.609 410.5,251.5 Z"/></g>
<g><path style="opacity:0.059" fill="#82da36" d="M 397.5,250.5 C 400.054,250.797 402.554,250.797 405,250.5C 406.394,252.402 408.227,252.735 410.5,251.5C 414.985,255.959 413.985,258.292 407.5,258.5C 401.724,258.639 398.391,255.972 397.5,250.5 Z"/></g>
<g><path style="opacity:0.039" fill="#c1f311" d="M 406.5,260.5 C 407.995,260.415 408.995,261.081 409.5,262.5C 407.604,263.639 406.604,262.973 406.5,260.5 Z"/></g>
<g><path style="opacity:1" fill="#e4fa01" d="M 459.5,309.5 C 458.265,309.279 457.265,308.612 456.5,307.5C 449.488,311.005 443.488,315.838 438.5,322C 416.844,327.47 409.344,340.97 416,362.5C 416.833,363.333 417.667,364.167 418.5,365C 423.833,365.333 429.167,365.667 434.5,366C 440.07,369.986 440.903,374.82 437,380.5C 435.074,386.049 436.907,389.382 442.5,390.5C 427.551,404.874 409.551,411.041 388.5,409C 381.841,408.25 375.508,406.75 369.5,404.5C 370.552,404.649 371.552,404.483 372.5,404C 372.167,403.667 371.833,403.333 371.5,403C 374.638,398.358 373.804,394.525 369,391.5C 369.379,386.578 367.879,382.412 364.5,379C 357.462,376.432 350.295,374.265 343,372.5C 340.403,372.94 337.903,373.607 335.5,374.5C 332.707,370.046 330.207,365.379 328,360.5C 327.506,358.866 327.34,357.199 327.5,355.5C 328.151,354.909 328.818,354.243 329.5,353.5C 338.837,357.391 348.504,360.057 358.5,361.5C 358.337,359.143 358.503,356.81 359,354.5C 363.778,343.773 369.945,333.94 377.5,325C 384.081,322.802 388.915,318.636 392,312.5C 393.361,307.726 391.861,304.226 387.5,302C 381.176,302.18 374.843,302.18 368.5,302C 361.843,299.673 355.177,297.34 348.5,295C 346.19,294.503 343.857,294.337 341.5,294.5C 345.578,287.602 351.245,282.268 358.5,278.5C 358.369,279.239 358.536,279.906 359,280.5C 367.66,274.834 377.16,271.334 387.5,270C 396.226,269.577 404.893,269.91 413.5,271C 409.686,269.929 406.353,268.096 403.5,265.5C 402.334,267.739 401.001,267.739 399.5,265.5C 402.544,264.171 405.544,264.337 408.5,266C 418.956,270.45 428.956,275.783 438.5,282C 447.947,289.283 454.947,298.449 459.5,309.5 Z"/></g>
<g><path style="opacity:0.188" fill="#b5e00a" d="M 399.5,265.5 C 401.001,267.739 402.334,267.739 403.5,265.5C 406.353,268.096 409.686,269.929 413.5,271C 404.893,269.91 396.226,269.577 387.5,270C 377.16,271.334 367.66,274.834 359,280.5C 358.536,279.906 358.369,279.239 358.5,278.5C 370.815,270.33 384.481,265.997 399.5,265.5 Z"/></g>
<g><path style="opacity:1" fill="#307f54" d="M 341.5,294.5 C 343.857,294.337 346.19,294.503 348.5,295C 355.177,297.34 361.843,299.673 368.5,302C 374.843,302.18 381.176,302.18 387.5,302C 391.861,304.226 393.361,307.726 392,312.5C 388.915,318.636 384.081,322.802 377.5,325C 369.945,333.94 363.778,343.773 359,354.5C 358.503,356.81 358.337,359.143 358.5,361.5C 348.504,360.057 338.837,357.391 329.5,353.5C 328.818,354.243 328.151,354.909 327.5,355.5C 322.237,332.672 326.904,312.339 341.5,294.5 Z"/></g>
<g><path style="opacity:1" fill="#e2f904" d="M 259.5,369.5 C 256.932,368.55 254.432,368.55 252,369.5C 251.5,372.838 253,374.505 256.5,374.5C 246.724,391.732 236.724,408.732 226.5,425.5C 225.007,424.555 223.507,423.555 222,422.5C 218.174,423.969 217.674,426.136 220.5,429C 221.793,429.49 223.127,429.657 224.5,429.5C 221.793,433.579 219.793,437.579 218.5,441.5C 200.674,442.497 182.674,442.83 164.5,442.5C 162.125,437.81 159.792,433.143 157.5,428.5C 158.649,428.209 159.316,427.376 159.5,426C 158.911,423.367 157.244,422.2 154.5,422.5C 137.24,401.872 132.24,378.539 139.5,352.5C 142.371,351.877 145.204,351.544 148,351.5C 148.956,347.075 147.123,345.408 142.5,346.5C 148.837,335.015 155.337,323.681 162,312.5C 163.657,309.842 165.991,308.175 169,307.5C 182.441,313.54 195.274,320.706 207.5,329C 225.532,339.014 243.532,349.014 261.5,359C 262.804,359.804 263.471,360.971 263.5,362.5C 262.914,365.349 261.58,367.682 259.5,369.5 Z"/></g>
<g><path style="opacity:1" fill="#307f54" d="M 459.5,309.5 C 469.853,335.39 467.02,359.724 451,382.5C 448.297,385.371 445.464,388.038 442.5,390.5C 436.907,389.382 435.074,386.049 437,380.5C 440.903,374.82 440.07,369.986 434.5,366C 429.167,365.667 423.833,365.333 418.5,365C 417.667,364.167 416.833,363.333 416,362.5C 409.344,340.97 416.844,327.47 438.5,322C 443.488,315.838 449.488,311.005 456.5,307.5C 457.265,308.612 458.265,309.279 459.5,309.5 Z"/></g>
<g><path style="opacity:0.998" fill="#2c7f54" d="M 177.5,313.5 C 180.999,314.134 181.999,315.967 180.5,319C 177.763,320.08 176.096,319.246 175.5,316.5C 175.942,315.261 176.609,314.261 177.5,313.5 Z"/></g>
<g><path style="opacity:1" fill="#247656" d="M 187.5,324.5 C 192.041,324.815 193.041,326.649 190.5,330C 186.537,330.118 185.537,328.284 187.5,324.5 Z"/></g>
<g><path style="opacity:1" fill="#267a55" d="M 165.5,324.5 C 170.159,324.015 171.492,325.848 169.5,330C 164.728,330.81 163.395,328.977 165.5,324.5 Z"/></g>
<g><path style="opacity:1" fill="#2c7f53" d="M 154.5,335.5 C 159.159,335.015 160.492,336.848 158.5,341C 153.728,341.81 152.395,339.977 154.5,335.5 Z"/></g>
<g><path style="opacity:1" fill="#237556" d="M 198.5,335.5 C 202.35,335.701 203.35,337.534 201.5,341C 197.537,341.118 196.537,339.284 198.5,335.5 Z"/></g>
<g><path style="opacity:1" fill="#257855" d="M 176.5,335.5 C 181.158,335.653 182.158,337.486 179.5,341C 175.537,341.118 174.537,339.284 176.5,335.5 Z"/></g>
<g><path style="opacity:0.988" fill="#368552" d="M 142.5,346.5 C 147.123,345.408 148.956,347.075 148,351.5C 145.204,351.544 142.371,351.877 139.5,352.5C 141.385,350.947 142.385,348.947 142.5,346.5 Z"/></g>
<g><path style="opacity:1" fill="#2b7f53" d="M 165.5,346.5 C 170.159,346.015 171.492,347.848 169.5,352C 164.728,352.81 163.395,350.977 165.5,346.5 Z"/></g>
<g><path style="opacity:1" fill="#287a55" d="M 187.5,346.5 C 192.158,346.653 193.158,348.486 190.5,352C 186.537,352.118 185.537,350.284 187.5,346.5 Z"/></g>
<g><path style="opacity:1" fill="#267855" d="M 208.5,346.5 C 210.167,346.5 211.833,346.5 213.5,346.5C 213.66,348.199 213.494,349.866 213,351.5C 211.667,352.833 210.333,352.833 209,351.5C 208.506,349.866 208.34,348.199 208.5,346.5 Z"/></g>
<g><path style="opacity:1" fill="#267a55" d="M 230.5,346.5 C 235.159,346.015 236.492,347.848 234.5,352C 230.266,352.267 228.933,350.434 230.5,346.5 Z"/></g>
<g><path style="opacity:1" fill="#267755" d="M 198.5,357.5 C 199.833,357.5 201.167,357.5 202.5,357.5C 202.66,359.199 202.494,360.866 202,362.5C 197.633,363.575 196.466,361.908 198.5,357.5 Z"/></g>
<g><path style="opacity:1" fill="#287c54" d="M 241.5,357.5 C 246.159,357.015 247.492,358.848 245.5,363C 241.266,363.267 239.933,361.434 241.5,357.5 Z"/></g>
<g><path style="opacity:1" fill="#2a7d54" d="M 154.5,357.5 C 159.159,357.015 160.492,358.848 158.5,363C 153.728,363.81 152.395,361.977 154.5,357.5 Z"/></g>
<g><path style="opacity:1" fill="#237855" d="M 176.5,357.5 C 181.587,357.284 182.587,359.118 179.5,363C 175.537,363.118 174.537,361.284 176.5,357.5 Z"/></g>
<g><path style="opacity:1" fill="#247856" d="M 219.5,357.5 C 224.159,357.015 225.492,358.848 223.5,363C 219.272,363.272 217.938,361.438 219.5,357.5 Z"/></g>
<g><path style="opacity:1" fill="#287a54" d="M 165.5,368.5 C 170.587,368.284 171.587,370.118 168.5,374C 164.537,374.118 163.537,372.284 165.5,368.5 Z"/></g>
<g><path style="opacity:1" fill="#287a55" d="M 187.5,368.5 C 192.587,368.284 193.587,370.118 190.5,374C 186.537,374.118 185.537,372.284 187.5,368.5 Z"/></g>
<g><path style="opacity:1" fill="#237656" d="M 209.5,368.5 C 213.35,368.701 214.35,370.534 212.5,374C 208.537,374.118 207.537,372.284 209.5,368.5 Z"/></g>
<g><path style="opacity:1" fill="#267a55" d="M 230.5,368.5 C 235.159,368.015 236.492,369.848 234.5,374C 230.266,374.267 228.933,372.434 230.5,368.5 Z"/></g>
<g><path style="opacity:0.922" fill="#419253" d="M 259.5,369.5 C 258.89,371.434 257.89,373.101 256.5,374.5C 253,374.505 251.5,372.838 252,369.5C 254.432,368.55 256.932,368.55 259.5,369.5 Z"/></g>
<g><path style="opacity:1" fill="#267855" d="M 143.5,368.5 C 148.159,368.015 149.492,369.848 147.5,374C 143.266,374.267 141.933,372.434 143.5,368.5 Z"/></g>
<g><path style="opacity:1" fill="#318154" d="M 369.5,404.5 C 354.7,398.363 343.367,388.363 335.5,374.5C 337.903,373.607 340.403,372.94 343,372.5C 350.295,374.265 357.462,376.432 364.5,379C 367.879,382.412 369.379,386.578 369,391.5C 373.804,394.525 374.638,398.358 371.5,403C 371.833,403.333 372.167,403.667 372.5,404C 371.552,404.483 370.552,404.649 369.5,404.5 Z"/></g>
<g><path style="opacity:1" fill="#277a55" d="M 176.5,379.5 C 181.587,379.284 182.587,381.118 179.5,385C 175.537,385.118 174.537,383.284 176.5,379.5 Z"/></g>
<g><path style="opacity:1" fill="#257956" d="M 198.5,379.5 C 199.833,379.5 201.167,379.5 202.5,379.5C 202.66,381.199 202.494,382.866 202,384.5C 197.633,385.575 196.466,383.908 198.5,379.5 Z"/></g>
<g><path style="opacity:1" fill="#287a55" d="M 219.5,379.5 C 224.159,379.015 225.492,380.848 223.5,385C 219.266,385.267 217.933,383.434 219.5,379.5 Z"/></g>
<g><path style="opacity:1" fill="#247656" d="M 154.5,379.5 C 160.175,379.86 160.842,381.86 156.5,385.5C 153.61,384.163 152.943,382.163 154.5,379.5 Z"/></g>
<g><path style="opacity:1" fill="#277a56" d="M 241.5,379.5 C 246.159,379.015 247.492,380.848 245.5,385C 241.266,385.267 239.933,383.434 241.5,379.5 Z"/></g>
<g><path style="opacity:1" fill="#237756" d="M 165.5,390.5 C 169.138,389.737 170.638,391.07 170,394.5C 165.415,396.413 163.915,395.079 165.5,390.5 Z"/></g>
<g><path style="opacity:1" fill="#277956" d="M 187.5,390.5 C 191.676,389.831 193.009,391.331 191.5,395C 189.866,395.494 188.199,395.66 186.5,395.5C 186.366,393.708 186.699,392.042 187.5,390.5 Z"/></g>
<g><path style="opacity:1" fill="#267956" d="M 230.5,390.5 C 234.5,389.833 236.167,391.5 235.5,395.5C 230.58,396.585 228.913,394.918 230.5,390.5 Z"/></g>
<g><path style="opacity:1" fill="#247956" d="M 143.5,390.5 C 147.138,389.737 148.638,391.07 148,394.5C 143.415,396.413 141.915,395.079 143.5,390.5 Z"/></g>
<g><path style="opacity:1" fill="#1a7257" d="M 208.5,390.5 C 210.167,390.5 211.833,390.5 213.5,390.5C 213.5,392.167 213.5,393.833 213.5,395.5C 211.833,395.5 210.167,395.5 208.5,395.5C 208.5,393.833 208.5,392.167 208.5,390.5 Z"/></g>
<g><path style="opacity:1" fill="#237756" d="M 176.5,401.5 C 180.138,400.737 181.638,402.07 181,405.5C 176.415,407.413 174.915,406.079 176.5,401.5 Z"/></g>
<g><path style="opacity:1" fill="#277a55" d="M 219.5,401.5 C 221.167,401.5 222.833,401.5 224.5,401.5C 224.5,403.167 224.5,404.833 224.5,406.5C 219.58,407.585 217.913,405.918 219.5,401.5 Z"/></g>
<g><path style="opacity:1" fill="#247855" d="M 154.5,401.5 C 158.138,400.737 159.638,402.07 159,405.5C 154.415,407.413 152.915,406.079 154.5,401.5 Z"/></g>
<g><path style="opacity:1" fill="#197157" d="M 197.5,401.5 C 199.167,401.5 200.833,401.5 202.5,401.5C 202.5,403.167 202.5,404.833 202.5,406.5C 200.833,406.5 199.167,406.5 197.5,406.5C 197.5,404.833 197.5,403.167 197.5,401.5 Z"/></g>
<g><path style="opacity:1" fill="#237756" d="M 166.5,411.5 C 169.966,412.109 170.966,413.942 169.5,417C 164.289,417.546 163.289,415.713 166.5,411.5 Z"/></g>
<g><path style="opacity:1" fill="#267a56" d="M 188.5,411.5 C 191.966,412.109 192.966,413.942 191.5,417C 188.763,418.08 187.096,417.246 186.5,414.5C 186.942,413.261 187.609,412.261 188.5,411.5 Z"/></g>
<g><path style="opacity:1" fill="#00cd91" d="M 455.5,499.5 C 455.628,501.655 455.128,503.655 454,505.5C 451.407,507.549 448.907,509.715 446.5,512C 409.896,535.607 373.562,559.607 337.5,584C 333.989,586.505 330.156,588.339 326,589.5C 321.432,588.598 318.432,585.932 317,581.5C 316.818,572.922 316.318,564.422 315.5,556C 296.833,555.667 278.167,555.333 259.5,555C 239.594,552.157 223.761,542.657 212,526.5C 196.406,498.305 180.572,470.305 164.5,442.5C 182.674,442.83 200.674,442.497 218.5,441.5C 251.473,442.606 284.473,443.106 317.5,443C 318.483,434.585 318.817,426.085 318.5,417.5C 320.587,416.224 322.587,414.724 324.5,413C 326.833,412.333 329.167,412.333 331.5,413C 371.942,440.443 412.109,468.277 452,496.5C 452.973,498.392 453.64,500.392 454,502.5C 454.232,501.263 454.732,500.263 455.5,499.5 Z"/></g>
<g><path style="opacity:1" fill="#277a55" d="M 209.5,411.5 C 213.068,411.759 214.401,413.759 213.5,417.5C 211.833,417.5 210.167,417.5 208.5,417.5C 208.325,415.379 208.659,413.379 209.5,411.5 Z"/></g>
<g><path style="opacity:1" fill="#227856" d="M 198.5,422.5 C 202.068,422.759 203.401,424.759 202.5,428.5C 197.74,428.799 196.406,426.799 198.5,422.5 Z"/></g>
<g><path style="opacity:1" fill="#328754" d="M 226.5,425.5 C 226.011,426.995 225.345,428.329 224.5,429.5C 223.127,429.657 221.793,429.49 220.5,429C 217.674,426.136 218.174,423.969 222,422.5C 223.507,423.555 225.007,424.555 226.5,425.5 Z"/></g>
<g><path style="opacity:0.275" fill="#6ebb42" d="M 154.5,422.5 C 157.244,422.2 158.911,423.367 159.5,426C 159.316,427.376 158.649,428.209 157.5,428.5C 155.654,426.97 154.654,424.97 154.5,422.5 Z"/></g>
<g><path style="opacity:1" fill="#257955" d="M 176.5,422.5 C 180.485,422.629 181.818,424.463 180.5,428C 175.728,428.81 174.395,426.977 176.5,422.5 Z"/></g>
<g><path style="opacity:1" fill="#257955" d="M 165.5,433.5 C 169.692,433.403 171.025,435.236 169.5,439C 164.728,439.81 163.395,437.977 165.5,433.5 Z"/></g>
<g><path style="opacity:1" fill="#267955" d="M 187.5,433.5 C 191.225,433.537 192.558,435.204 191.5,438.5C 186.733,439.899 185.4,438.232 187.5,433.5 Z"/></g>
<g><path style="opacity:1" fill="#257656" d="M 209.5,433.5 C 213.068,433.759 214.401,435.759 213.5,439.5C 208.74,439.799 207.406,437.799 209.5,433.5 Z"/></g>
<g><path style="opacity:0.812" fill="#02e4a3" d="M 455.5,499.5 C 454.732,500.263 454.232,501.263 454,502.5C 453.64,500.392 452.973,498.392 452,496.5C 412.109,468.277 371.942,440.443 331.5,413C 329.167,412.333 326.833,412.333 324.5,413C 322.587,414.724 320.587,416.224 318.5,417.5C 321.13,410.698 325.964,408.698 333,411.5C 372.34,438.765 411.84,465.932 451.5,493C 453.232,494.972 454.565,497.139 455.5,499.5 Z"/></g>
<g><path style="opacity:1" fill="#e3f903" d="M 572.5,443.5 C 573.822,443.33 574.989,443.663 576,444.5C 582.661,456.646 589.494,468.646 596.5,480.5C 594.042,480.227 592.375,481.227 591.5,483.5C 593.802,487.415 595.802,487.415 597.5,483.5C 598.605,484.6 599.938,485.267 601.5,485.5C 593.833,498.833 586.167,512.167 578.5,525.5C 576.4,525.523 574.567,524.856 573,523.5C 569.822,524.385 568.989,526.218 570.5,529C 572.134,529.494 573.801,529.66 575.5,529.5C 573.628,532.582 571.295,535.249 568.5,537.5C 567.504,537.414 566.671,537.748 566,538.5C 565.131,535.606 563.298,534.439 560.5,535C 558.731,538.41 559.731,540.576 563.5,541.5C 554.218,548.966 543.551,553.466 531.5,555C 515.833,555.667 500.167,555.667 484.5,555C 483.748,554.329 483.414,553.496 483.5,552.5C 484.397,551.402 485.23,551.402 486,552.5C 490.413,550.438 490.579,548.105 486.5,545.5C 485.583,546.127 484.583,546.461 483.5,546.5C 483.5,541.167 483.5,535.833 483.5,530.5C 487.987,530.859 489.654,529.026 488.5,525C 486.866,524.506 485.199,524.34 483.5,524.5C 483.5,519.5 483.5,514.5 483.5,509.5C 488.266,508.849 489.599,506.349 487.5,502C 486.181,501.805 484.847,501.972 483.5,502.5C 483.5,497.5 483.5,492.5 483.5,487.5C 487.841,487.15 489.508,484.817 488.5,480.5C 486.833,480.5 485.167,480.5 483.5,480.5C 483.227,475.333 483.227,470.333 483.5,465.5C 488.022,465.163 489.355,462.997 487.5,459C 486.207,458.51 484.873,458.343 483.5,458.5C 482.919,453.025 483.586,447.858 485.5,443C 514.588,443.019 543.588,443.185 572.5,443.5 Z"/></g>
<g><path style="opacity:1" fill="#247756" d="M 495.5,447.5 C 499.35,447.701 500.35,449.534 498.5,453C 493.722,453.073 492.722,451.24 495.5,447.5 Z"/></g>
<g><path style="opacity:1" fill="#2a7e54" d="M 516.5,447.5 C 521.159,447.015 522.492,448.848 520.5,453C 515.728,453.81 514.395,451.977 516.5,447.5 Z"/></g>
<g><path style="opacity:1" fill="#297e54" d="M 538.5,447.5 C 542.701,447.426 544.035,449.259 542.5,453C 537.728,453.81 536.395,451.977 538.5,447.5 Z"/></g>
<g><path style="opacity:1" fill="#267956" d="M 560.5,447.5 C 564.225,447.537 565.558,449.204 564.5,452.5C 559.733,453.899 558.4,452.232 560.5,447.5 Z"/></g>
<g><path style="opacity:1" fill="#2a7e54" d="M 527.5,458.5 C 532.159,458.015 533.492,459.848 531.5,464C 526.728,464.81 525.395,462.977 527.5,458.5 Z"/></g>
<g><path style="opacity:0.983" fill="#2b7d54" d="M 549.5,458.5 C 553.527,458.26 554.861,459.926 553.5,463.5C 548.732,464.889 547.398,463.223 549.5,458.5 Z"/></g>
<g><path style="opacity:1" fill="#267856" d="M 571.5,458.5 C 576.041,458.815 577.041,460.649 574.5,464C 570.537,464.118 569.537,462.284 571.5,458.5 Z"/></g>
<g><path style="opacity:0.784" fill="#4c9c50" d="M 483.5,458.5 C 484.873,458.343 486.207,458.51 487.5,459C 489.355,462.997 488.022,465.163 483.5,465.5C 483.5,463.167 483.5,460.833 483.5,458.5 Z"/></g>
<g><path style="opacity:0.814" fill="#39984d" d="M 505.5,458.5 C 510.159,458.015 511.492,459.848 509.5,464C 504.728,464.81 503.395,462.977 505.5,458.5 Z"/></g>
<g><path style="opacity:1" fill="#237757" d="M 560.5,469.5 C 565.158,469.653 566.158,471.486 563.5,475C 559.537,475.118 558.537,473.284 560.5,469.5 Z"/></g>
<g><path style="opacity:1" fill="#2b7e54" d="M 516.5,469.5 C 521.159,469.015 522.492,470.848 520.5,475C 515.728,475.81 514.395,473.977 516.5,469.5 Z"/></g>
<g><path style="opacity:1" fill="#2b7e54" d="M 538.5,469.5 C 543.159,469.015 544.492,470.848 542.5,475C 537.728,475.81 536.395,473.977 538.5,469.5 Z"/></g>
<g><path style="opacity:1" fill="#267856" d="M 581.5,469.5 C 583.167,469.5 584.833,469.5 586.5,469.5C 586.66,471.199 586.494,472.866 586,474.5C 584.667,475.833 583.333,475.833 582,474.5C 581.506,472.866 581.34,471.199 581.5,469.5 Z"/></g>
<g><path style="opacity:1" fill="#257856" d="M 494.5,469.5 C 499.159,469.015 500.492,470.848 498.5,475C 494.272,475.272 492.938,473.438 494.5,469.5 Z"/></g>
<g><path style="opacity:0.749" fill="#59a94b" d="M 483.5,480.5 C 485.167,480.5 486.833,480.5 488.5,480.5C 489.508,484.817 487.841,487.15 483.5,487.5C 483.5,485.167 483.5,482.833 483.5,480.5 Z"/></g>
<g><path style="opacity:1" fill="#2d7f53" d="M 527.5,480.5 C 532.159,480.015 533.492,481.848 531.5,486C 526.728,486.81 525.395,484.977 527.5,480.5 Z"/></g>
<g><path style="opacity:1" fill="#277855" d="M 571.5,480.5 C 572.833,480.5 574.167,480.5 575.5,480.5C 575.66,482.199 575.494,483.866 575,485.5C 570.633,486.575 569.466,484.908 571.5,480.5 Z"/></g>
<g><path style="opacity:1" fill="#2a7954" d="M 596.5,480.5 C 597.11,481.391 597.443,482.391 597.5,483.5C 595.802,487.415 593.802,487.415 591.5,483.5C 592.375,481.227 594.042,480.227 596.5,480.5 Z"/></g>
<g><path style="opacity:1" fill="#277855" d="M 549.5,480.5 C 554.587,480.284 555.587,482.118 552.5,486C 548.537,486.118 547.537,484.284 549.5,480.5 Z"/></g>
<g><path style="opacity:0.906" fill="#2a7d55" d="M 505.5,480.5 C 510.159,480.015 511.492,481.848 509.5,486C 505.266,486.267 503.933,484.434 505.5,480.5 Z"/></g>
<g><path style="opacity:1" fill="#287a55" d="M 494.5,491.5 C 499.159,491.015 500.492,492.848 498.5,497C 494.266,497.267 492.933,495.434 494.5,491.5 Z"/></g>
<g><path style="opacity:1" fill="#2b7c54" d="M 516.5,491.5 C 521.159,491.015 522.492,492.848 520.5,497C 516.266,497.267 514.933,495.434 516.5,491.5 Z"/></g>
<g><path style="opacity:1" fill="#297955" d="M 560.5,491.5 C 565.587,491.284 566.587,493.118 563.5,497C 559.537,497.118 558.537,495.284 560.5,491.5 Z"/></g>
<g><path style="opacity:1" fill="#247756" d="M 582.5,491.5 C 586.35,491.701 587.35,493.534 585.5,497C 581.537,497.118 580.537,495.284 582.5,491.5 Z"/></g>
<g><path style="opacity:1" fill="#277955" d="M 538.5,491.5 C 543.587,491.284 544.587,493.118 541.5,497C 537.537,497.118 536.537,495.284 538.5,491.5 Z"/></g>
<g><path style="opacity:1" fill="#277a55" d="M 549.5,502.5 C 554.587,502.284 555.587,504.118 552.5,508C 548.537,508.118 547.537,506.284 549.5,502.5 Z"/></g>
<g><path style="opacity:1" fill="#257956" d="M 571.5,502.5 C 572.833,502.5 574.167,502.5 575.5,502.5C 575.66,504.199 575.494,505.866 575,507.5C 570.633,508.575 569.466,506.908 571.5,502.5 Z"/></g>
<g><path style="opacity:0.776" fill="#3c984f" d="M 505.5,502.5 C 510.159,502.015 511.492,503.848 509.5,508C 505.266,508.267 503.933,506.434 505.5,502.5 Z"/></g>
<g><path style="opacity:0.376" fill="#76c43e" d="M 483.5,509.5 C 484.438,507.09 484.438,504.756 483.5,502.5C 484.847,501.972 486.181,501.805 487.5,502C 489.599,506.349 488.266,508.849 483.5,509.5 Z"/></g>
<g><path style="opacity:1" fill="#247756" d="M 527.5,502.5 C 533.175,502.86 533.842,504.86 529.5,508.5C 526.61,507.163 525.943,505.163 527.5,502.5 Z"/></g>
<g><path style="opacity:1" fill="#2a7d55" d="M 494.5,513.5 C 499.159,513.015 500.492,514.848 498.5,519C 494.266,519.267 492.933,517.434 494.5,513.5 Z"/></g>
<g><path style="opacity:1" fill="#267955" d="M 538.5,513.5 C 544.175,513.86 544.842,515.86 540.5,519.5C 537.61,518.163 536.943,516.163 538.5,513.5 Z"/></g>
<g><path style="opacity:1" fill="#2a7c55" d="M 560.5,513.5 C 565.587,513.284 566.587,515.118 563.5,519C 559.537,519.118 558.537,517.284 560.5,513.5 Z"/></g>
<g><path style="opacity:1" fill="#237756" d="M 516.5,513.5 C 522.175,513.86 522.842,515.86 518.5,519.5C 515.61,518.163 514.943,516.163 516.5,513.5 Z"/></g>
<g><path style="opacity:1" fill="#227656" d="M 549.5,524.5 C 553.138,523.737 554.638,525.07 554,528.5C 549.415,530.413 547.915,529.079 549.5,524.5 Z"/></g>
<g><path style="opacity:1" fill="#257955" d="M 527.5,524.5 C 531.138,523.737 532.638,525.07 532,528.5C 527.415,530.413 525.915,529.079 527.5,524.5 Z"/></g>
<g><path style="opacity:0.38" fill="#94da30" d="M 483.5,524.5 C 485.199,524.34 486.866,524.506 488.5,525C 489.654,529.026 487.987,530.859 483.5,530.5C 483.5,528.5 483.5,526.5 483.5,524.5 Z"/></g>
<g><path style="opacity:0.506" fill="#64c039" d="M 506.5,523.5 C 509.243,523.077 510.576,524.244 510.5,527C 508.551,531.634 506.551,531.634 504.5,527C 504.978,525.697 505.645,524.531 506.5,523.5 Z"/></g>
<g><path style="opacity:0.451" fill="#7ccb39" d="M 578.5,525.5 C 577.5,526.833 576.5,528.167 575.5,529.5C 573.801,529.66 572.134,529.494 570.5,529C 568.989,526.218 569.822,524.385 573,523.5C 574.567,524.856 576.4,525.523 578.5,525.5 Z"/></g>
<g><path style="opacity:1" fill="#247756" d="M 539.5,534.5 C 542.966,535.109 543.966,536.942 542.5,540C 537.289,540.546 536.289,538.713 539.5,534.5 Z"/></g>
<g><path style="opacity:1" fill="#287955" d="M 495.5,534.5 C 499.35,534.701 500.35,536.534 498.5,540C 493.289,540.546 492.289,538.713 495.5,534.5 Z"/></g>
<g><path style="opacity:0.995" fill="#428b51" d="M 568.5,537.5 C 567.421,539.543 565.754,540.876 563.5,541.5C 559.731,540.576 558.731,538.41 560.5,535C 563.298,534.439 565.131,535.606 566,538.5C 566.671,537.748 567.504,537.414 568.5,537.5 Z"/></g>
<g><path style="opacity:1" fill="#237656" d="M 517.5,534.5 C 520.966,535.109 521.966,536.942 520.5,540C 515.289,540.546 514.289,538.713 517.5,534.5 Z"/></g>
<g><path style="opacity:1" fill="#277b55" d="M 506.5,545.5 C 510.35,545.701 511.35,547.534 509.5,551C 504.289,551.546 503.289,549.713 506.5,545.5 Z"/></g>
<g><path style="opacity:1" fill="#227756" d="M 528.5,545.5 C 531.966,546.109 532.966,547.942 531.5,551C 526.289,551.546 525.289,549.713 528.5,545.5 Z"/></g>
<g><path style="opacity:0.361" fill="#99de2e" d="M 483.5,552.5 C 483.5,550.5 483.5,548.5 483.5,546.5C 484.583,546.461 485.583,546.127 486.5,545.5C 490.579,548.105 490.413,550.438 486,552.5C 485.23,551.402 484.397,551.402 483.5,552.5 Z"/></g>
</svg>
